<?xml version="1.0"?><svg version="1.2" baseProfile="tiny-ps" viewBox="0 0 150 150" xmlns="http://www.w3.org/2000/svg" xmlns:xlink="http://www.w3.org/1999/xlink"><title>logo.svg</title><g><g fill="#f8fbfc" transform="matrix(.1 0 0 -.1 0 150)"><path d="M0 750V0h1500v1500H0V750z"/></g><g fill="#d2dae5" transform="matrix(.1 0 0 -.1 0 150)"><path d="M0 750V0h1500v1500H0V750zm673 353-23-4-2-62-2-62-3 62-4 62-27 4-27 4h110l-22-4zm58-59c0-31-3-59-6-62s-5 25-5 63 3 66 6 62c3-3 6-31 5-63zm65-24 2-45-7 39-6 39-20 8-20 9 25-3 25-2 1-45zm102 38c7-7 12-18 12-25v-13h-72l4-12 5-13 29-6 29-7-22-1c-12 0-28 2-37 5l-16 6v32c0 18 3 36 7 39 11 11 48 8 61-5zM281 868l22-43V725l-17-32c-9-18-26-39-38-47l-22-16h-64l-12 15-13 15-19-6-19-6-26 17-25 17 4 56 4 57 28 42c15 23 34 44 42 47l15 6-24-33c-29-39-47-89-47-132v-31l14-19 13-18 16 6 16 6-6 35-6 36 13 29c6 16 18 32 26 35l14 6-10-20c-5-10-10-35-10-54v-36h9c5 0 14 13 21 30l12 30-5 25-4 26 11-4 11-4-1-42-1-41-22-24-23-25 7-10c3-6 16-11 29-11h23l21 23c29 31 42 70 42 125v47l-15 29c-16 30-18 36-10 36 2 0 14-19 26-42zm489-2c67-34 108-70 127-115l14-34-12-29-12-29-28-14-28-15H724l-12-12-11-11-7 19c-4 10-12 22-18 26l-11 8h25v80h-14c-8 0-26-4-41-10l-26-10 6 10c3 5 20 13 37 18l32 8 12 34 12 35 3-30 4-29 50-11 50-10 3-17 3-16-11-7-10-6 2 12 3 13-38 10-37 10-9-10-9-9 7-40 7-40 53 1 52 2 25 23 24 22v61l-49 47-50 48-66 20c-37 12-84 21-104 21h-37l-14-12-14-13 14 19 14 18 71-4 71-5 54-27zm197-26-32-28 7-8 8-7 25 11 26 12 9 22 9 23v-17l1-17-26-20-27-21h-55l-5 20-5 20 9-6 10-6 15 13 15 12-5 13-5 13 17 4c9 2 22 2 29-1l12-4-32-28zM385 704c3-32 2-51-1-41l-5 17h-48l-6-20-6-20-9 5-9 5 9 30c5 17 19 47 31 66l22 35 9-9 9-9 4-59zm49 25-7-52 29 7 28 7-18-20c-11-12-25-21-32-21h-13l-6 19c-5 17-2 43 12 94 9 35 13 15 7-34zm92 32 14 11v-24l15 6 15 5v-10c0-5-11-14-25-19l-25-10V609l-11 7-11 7 4 55 5 56-21 19-21 18 23-11 23-11 15 12zm682-65-3-39-12-4-12-4-16 30c-8 17-20 31-25 31h-10v-71l-9 6-10 5 6 38c3 20 9 43 13 51l7 13 22-36c13-20 27-36 33-36h10l-6 28c-4 15-9 36-12 47l-5 20 16-20 16-20-3-39zm-257-49-11-11 1 65 1 64 10-54 10-53-11-11zm139 103v-10h-89l-6-9-5-10 27-4 28-4-32-2-33-1v31l23 9c12 5 37 9 55 9l32 1v-10zm240 0v-10h-60v-10c0-6 10-15 23-20l22-9h-27l-28-1v-30h28l27-1-19-14c-11-8-28-15-38-15h-18l-1 13c-2 25 3 52 13 65l10 12-12 15-12 15h92v-10zm35-31c-24-46-10-48 30-5l34 38 11-7c5-3 10-11 10-16v-10l-9 6-9 5-21-26c-12-15-21-31-21-35 0-17 29-9 44 13l16 22v-15c0-19-24-40-62-57l-28-11-6-41c-4-22-11-43-17-47l-10-6 7 54c4 30 7 67 7 83 0 26 23 86 35 86 2 0-3-14-11-31zm-280-38v-24l-16-10-16-10-29 8-29 8 20 4c11 2 30 6 43 9l22 4v29l-17 5-18 5 20-2 20-2v-24zm-38 3c-3-3-12-4-19-1l-13 5 19 1c11 1 17-2 13-5zM438 539l5-14-14 13c-7 6-23 12-36 12h-22l-11-21-11-20 6-30 7-29 25-6 26-7 13 18c8 10 16 16 19 13s-1-13-10-22l-16-16h-21c-12 0-30 7-40 17l-18 16v63l13 16c23 30 76 28 85-3zm512-70v-40l-11 6-10 7 5 13c2 7 2 16-2 20-4 3-7 14-7 23v17l-25-2-25-3 20 9 20 8 18-9 17-9v-40zm-394 24 7-26-10-16-10-16-26-3-27-3-11 24-11 24 11 22 12 21h59l6-27zm109-16c0-22-3-41-7-44l-8-4v82l-22-3-23-3-6-40-6-40-2 48-1 48 37-3 38-3v-38zm64-4-2-48-6 39-6 39-20 8-20 8h28l27 1-1-47zm117 23 6-24-12-22-12-22-24 5-24 4v-18c0-10-4-21-10-24l-10-6v131h80l6-24zm147-18c-8-59-13-61-13-5v47h18l-5-42zm65-5-1-48-4 42-4 42-22 4-22 4 28 2 27 1-2-47zm49 17 6-30h25l7 30c4 17 10 30 15 30h9l-21-52c-26-65-36-78-57-77h-16l23 9c27 11 27 16 2 74l-19 46h20l6-30zm-217-25-12-15 23-9 24-10h-22c-12-1-25 4-28 9-9 15 1 40 16 40h11l-12-15zm-43 589c-4-4-7-11-7-16v-9l25 3c14 2 27 8 28 13l2 10-20 3c-12 2-24 0-28-4zM350 720v-20h20v40h-20v-20zm136-226-6-15 10-20 11-19h37l6 16c4 9 4 25 1 35l-6 19h-47l-6-16zm296-16 3-33 17-3 17-3 10 20 11 20-6 15-6 16h-49l3-32z"/></g><g fill="#afb9cc" transform="matrix(.1 0 0 -.1 0 150)"><path d="M0 750V0h1500v1500H0V750zm700 360c3-1-6-5-20-9l-25-7-3-57-3-57h-19v120h-41l5 9 5 8 48-3c27-1 50-3 53-4zm36-11c1-5 2-13 3-18l1-10 28 2 27 2 3-47 3-48h-21v80h-14c-20 0-31-20-27-52l3-28h-22v143l8-7c4-4 8-12 8-17zm155-29 19-11v-39h-69l6-16 6-16 29 6 29 6-6-10-6-10h-58l-11 19c-14 28-13 38 10 61s25 23 51 10zM263 902c44-48 59-135 33-195l-13-33-32-27-33-27h-48l-20 20-21 21-10-7c-6-3-21-3-34 0l-23 6-11 30-10 31 6 32c8 41 30 86 56 115 34 37 38 25 7-24l-29-47-7-43-6-44 16-25 16-24 13 4 12 5-3 50-4 49 26 26 26 26 18-3 17-3 3-41 3-41-27-32-27-32 12-12 11-11 27 10 28 9 23 45 23 45-4 53-4 53-22 29c-23 32-14 41 12 12zm503-32 61-27 36-37 37-36 6-27 7-26-9-25c-5-14-21-34-36-45l-27-20-58-1-58-1-8-10-7-10-18 21c-9 11-32 31-50 43-18 13-31 25-28 28s17-4 32-16c15-11 31-21 35-21h9v33c0 43-4 46-46 37l-35-8 11 13c6 8 25 17 41 20l29 7v58h9c5 0 12-13 16-30l7-30h64l21-15 22-16-5-14c-8-19-24-19-24 0v15h-17c-10 0-28 3-40 6l-23 6v-92h111l24 25c29 28 31 45 10 86l-16 29-40 30c-69 50-193 79-241 56l-18-8v21l33 10 32 9 45-5 45-5 61-28zm235 0 19-11v-14c0-8-9-23-21-34l-21-19-33-4-34-4-6 25-7 26 27 22c29 25 47 28 76 13zM385 732c3-26 8-57 11-69l4-23h-9c-5 0-11 9-14 20l-5 20h-32l-12-25-11-24-9 5-9 6 7 30c8 38 55 118 65 112 5-2 11-26 14-52zm51-2-7-51 27 7 27 7-5-13c-2-8-11-18-20-23l-15-10-17 6-16 6v35c0 33 17 86 28 86 2 0 2-23-2-50zm95 38 21 13 13-11 14-11-6-15-5-14h-36l-6-22c-3-13-6-41-6-63l-1-40-14 20-15 19 6 47 6 46-16 6-16 6v31l20-12 20-13 21 13zm682-48c4-14 4-36 0-48l-5-22h-28l-19 30-18 30-6-7c-4-3-7-19-7-35v-29l-10 6c-13 8-13 46 1 82l10 28 30-35 30-35-6 50-6 50 14-20c8-11 17-31 20-45zm117 29v-9h-24c-14 0-28-4-31-10l-6-10h41v-9c0-5-10-11-22-13l-21-3-5-13-4-14 25 4 26 3 2-10 3-10-26-9-26-9-17 6-17 7 8 32c4 18 7 43 7 55l-1 22 32 3c36 4 56-1 56-13zm-371-67 1-44-12 4-13 5-3 33c-2 18 0 45 3 59l7 26 8-20c5-11 9-39 9-63zm141 68v-10h-89l-5-9-6-8 42-6 41-5 8-14c12-18 11-24-7-42l-15-16h-55l-20 15-19 15 24 20 23 20h-42v13c0 7 5 18 12 25l12 12h96v-10zm271-29c-21-38-11-40 23-4l34 37 16-13 16-13v-40l-29-29c-16-16-36-29-45-29h-15l-10-37c-6-21-11-44-11-51v-14l-12 5-13 4 2 24c0 13 4 51 8 84l8 60 16 28 16 28 3-10c2-5-1-19-7-30zM435 550c21-23 14-26-15-8l-20 13-18-11-17-11v-76l17-10 17-11 20 19 21 18 6-6 7-7-13-15-12-15h-67l-11 19c-5 11-10 34-10 52v32l17 19 16 18h44l18-20zm106-30 19-11v-55l-12-12c-29-29-78-7-78 34v23l16 15c18 19 28 20 55 6zm187-42 3-48h-21v81l-17-3-18-3-3-38-3-37h-19v80h-40l-4-22c-3-13-7-32-9-43l-5-20-1 50-1 50h135l3-47zm110 39 12-8v-24c0-13-3-30-6-39l-6-16h-58v-40h-20v135h33c17 0 38-4 45-8zm96 7 16-6v-85l-40-1-40-2v42l30 11c17 6 30 15 30 20v9l-25-4-25-5v8c0 7 16 16 32 18 3 1 13-2 22-5zm124-46 3-48h-21v81l-17-3-18-3-3-38-3-37h-19v95h75l3-47zm51 15 19-38 16 39c9 22 19 37 22 34s-7-35-22-72l-26-66h-42l19 14 19 14-13 42c-7 23-15 48-18 56-11 29 7 12 26-23zm-259 552v-15h40v30h-40v-15zM160 786c-5-15-10-41-10-58v-30l15 12 14 12 7 35 7 34-11 11-11 11-11-27zm804 50-29-25 26-1h27l12 15 13 16-10 10-10 10-29-25zm-39 3c-4-6-5-12-2-15 2-3 7 2 10 11 7 17 1 20-8 4zM357 734c-4-4-7-14-7-23v-15l11 11c6 6 10 16 7 23l-3 11-8-7zm188 26c3-5 8-10 11-10 2 0 4 5 4 10 0 6-5 10-11 10h-10l6-10zm505-69 15-11h-79l12-12 11-11 31 9 32 9-1 10c0 6-8 11-18 13l-18 3 15-10zm361 8c-26-35-23-46 8-29l21 11v24c0 32-2 31-29-6zM494 496c-3-8-4-23-2-33l3-18h40v60l-18 3-17 3-6-15zm290 0c-3-8-4-23-2-33l3-18h40v60l-18 3-17 3-6-15zm119-23c-7-2-13-11-13-20v-14l17 3 18 3 3 18 3 17-8-1c-4 0-14-3-20-6z"/></g><g fill="#8995b0" transform="matrix(.1 0 0 -.1 0 150)"><path d="M0 750V0h1500v1500H0V750zm700 359c0-6-9-13-20-16l-19-5-3-54-3-54h-20l-3 54-3 54-19 5c-11 3-20 10-20 16v11h110v-11zm40-13v-25l28 2 27 2 3-53 3-54-10 7-11 6v80l-17-3-18-3-5-38-5-38-10 1h-10l-3 56c-3 61 1 84 18 84h10v-24zm158-28c7-7 12-20 12-30v-18h-62l5-12 4-13 27 2 26 2v-9c0-5-11-12-25-16l-26-6-19 17-20 18v20c0 43 51 72 78 45zM296 853l14-32v-92l-20-39-20-40-30-15c-37-19-61-19-86 0l-19 14-31 1H72l-11 13c-6 8-14 27-17 44l-6 29 12 43 11 43 34 36 33 37 7-6 6-7-26-38c-31-46-37-68-33-125l3-44 17-3 17-3-1 51v52l23 24 22 24h37l11-26 10-27-11-33-12-34-19-14-19-13 14-12 15-12 30 16 31 15 16 55 16 55-7 33c-4 17-16 47-26 65s-19 36-19 39c0 15 54-45 66-74zm426 37 65-20 46-35 47-36 15-29c8-16 15-42 15-59v-29l-30-26-31-25-32-5c-18-3-53-7-79-10l-48-6v29l-29 16c-29 14-61 51-61 68 0 4 20 17 45 28l45 20v24c0 13 4 26 9 29l9 6 7-30 7-30 39-6 40-7 15-15c18-17 14-36-10-40l-17-4 3 14 3 13-37 3-38 3v-81h91l29 15 30 15 6 25 6 26-25 38-26 39-67 33-67 33-64 4-63 4v-11c0-6-4-11-10-11-5 0-10 7-10 15v16l23 9c36 14 80 11 149-10zm279-20 19-11v-39l-22-14c-13-7-38-16-55-20l-33-5v7c0 4-3 17-6 28l-6 22 23 21 23 21h19c10 0 27-5 38-10zM389 729c6-27 11-59 11-69v-20h-9c-5 0-13 9-16 20l-6 20h-29l-10-26-10-25-10 6-11 7 3 26c2 15 16 48 31 75l28 47 9-5c4-3 13-28 19-56zm55 24c-3-16-6-37-7-48l-2-20 23 3 22 3v-10c0-5-10-17-21-25l-21-14-14 5-14 5v45c0 46 14 83 30 83h10l-6-27zm81 17 24 13 15-6 16-6v-31l-25-10-25-10V610h-29l-6 21-7 21 6 43 7 43-16 5-15 6v33l15-12 16-13 24 13zm684-37 15-42-12-25-11-26-14 6c-8 3-20 17-27 32l-13 27-9-32c-5-18-13-33-18-33h-10v33c0 17 3 42 6 55l6 22h14c8 0 14-3 14-7 0-5 10-19 21-33l21-25-5 30c-3 17-9 38-13 49l-7 19 14-5 14-4 14-41zm121 22 12-15h-62v-10c0-5 7-10 15-10 23 0 18-18-7-22-12-2-23-8-25-15l-4-12 25 2 25 2 2-10c1-5-11-16-26-24l-27-13-16 16-16 15 12 37c6 19 8 42 6 49l-5 13 18 5c10 3 28 5 39 6l22 1 12-15zm-370-61v-54h-30v53c0 54 6 71 21 61l9-5v-55zm140 56v-10h-32c-18 0-40-5-48-10l-15-10h28c16 0 37-5 48-10l19-11v-17c0-10-5-23-12-30l-12-12h-29c-51 0-92 39-54 53l12 5-19 14-18 14 17 17 16 17h99v-10zm275-21c-22-42-14-45 20-9 16 17 35 30 42 30h13l6-27 7-27-14-25-14-26-32-9-32-10-12-53-12-54-11 4-11 4 1 34c4 101 30 199 55 199h10l-16-31zM434 554l16-16-6-9-6-10-20 17-19 18-17-10c-20-13-26-36-18-70l6-24h25c13 0 27 5 30 10 3 6 10 10 16 10 18 0 9-20-16-36l-26-17-25 11-24 12-11 27-10 27 5 22c4 13 13 30 22 38l15 16h48l15-16zm121-48 16-23-10-25c-11-29-33-40-58-31-24 9-33 23-33 54s17 49 47 49h23l15-24zm173 12 12-10v-78h-30v81l-17-3-18-3-3-38-3-37h-18l-3 38-3 37h-30l-3-37-3-38h-29v43c0 24 2 46 4 48 3 2 33 5 68 6l63 1 13-10zm112-3 11-14-3-33-3-33-32-3-33-3v-39h-20v137l34 1 34 1 12-14zm110-37 6-46-34-4-33-4-17 12-17 12 19 21 19 21h37v23l-30-6-30-6v8c0 13 21 20 50 18l25-2 5-47zm108 39 12-9v-78h-30v81l-17-3-18-3-3-38-3-37h-19v97h33c17 0 38-4 45-10zm53-24 13-38 14 38c8 20 19 37 24 37h10l-6-24c-3-13-15-45-26-70l-19-46h-52l6 10c3 6 13 10 21 10h14v14c0 7-7 30-15 49-17 42-19 57-6 57 5 0 15-17 22-37zm-256 557-6-10h42l-6 10c-3 6-10 10-15 10s-12-4-15-10zM168 795c-3-6-9-27-13-48l-7-37h22l6 24c3 13 4 35 2 47l-3 24-7-10zm454-74-14-8 28-22c14-11 33-21 40-21h14v60h-27c-16 0-34-4-41-9zm342 115-19-14 7-7 6-7 20 6c11 4 23 13 26 21l5 15h-12c-7 0-22-6-33-14zM350 720c0-5 5-10 10-10 6 0 10 5 10 10 0 6-4 10-10 10-5 0-10-4-10-10zm705-30c3-5 11-10 16-10h10l-6 10c-3 6-11 10-16 10h-10l6-10zm-55-20c19-13 30-13 30 0v10h-45l15-10zm412 25c-27-34-20-47 9-18l21 21-4 13-4 12-22-28zM497 504c-11-12-8-41 6-52l13-11 13 8 13 8-4 24-3 24-15 3c-9 1-19 0-23-4zm290 0c-4-4-7-17-7-30v-22l13-5c8-3 19-2 26 3l13 7-4 24-3 24-15 3c-9 1-19 0-23-4zm103-42c0-14 11-21 26-15 21 8 17 23-6 23-11 0-20-4-20-8z"/></g><g fill="#627096" transform="matrix(.1 0 0 -.1 0 150)"><path d="M0 750V0h1500v1500H0V750zm700 355v-15h-40V970h-30v120h-19c-21 0-34 13-24 24 3 3 30 6 60 6h53v-15zm40-8v-24l30 5 29 4 6-25c4-13 5-37 3-53l-3-27-12-5-13-4v40c0 43-6 53-26 45l-14-5v-78h-30v150h30v-23zm164-33c9-8 16-22 16-30v-14h-70v-10c0-11 13-14 44-10l18 2-4-14-5-13-25-3-25-3-17 16-16 16v55l12 12c7 7 22 12 34 12h23l15-16zM251 920l19-11 21-41 21-40-4-59-3-59h8c4 0 7 5 7 11 0 15 39 69 50 69 5 0 12-16 16-35 3-19 10-38 15-41l9-5v15c0 8 5 26 11 40l12 25 8-5 8-5-6-46-6-45 21 7 22 6v-15c0-18-27-46-45-46-8 0-19 8-24 18l-10 17-1-17v-18h-10c-6 0-13 7-16 15-9 21-31 19-44-5-6-11-15-20-20-20h-10v58l-34-34-34-34h-70l-13 16-13 15-23-6-23-5-25 24-25 25v77l26 53 26 52 24 16c38 24 38 10 2-42l-33-46V675l18-3 17-4-6 40-6 39 16 31 16 32 25 6 25 6 15-12 15-12v-55l-25-37c-31-46-31-48 2-44l27 3 24 35 24 35-4 65-3 65-23 33c-25 34-23 38 9 22zm514-43 60-28 34-32c18-18 40-47 47-64l14-33-14-34-14-34-23-13-23-12-74-7-73-7-52 48-52 48 11 17 10 18 35 11 34 12 3 31 3 32h20l6-30 6-30h19c10 0 34-7 53-14l35-15v-39l-16-6c-23-9-27-8-21 8l6 14-15 6c-9 3-27 6-40 6h-25l3-37 3-38h52l52 1 20 18 21 19v56l-31 35-30 35-56 27-56 26-59 5-58 6v-23h-30v15c0 7 8 19 18 25l17 11 60-4 60-3 60-27zm249-13c21-20 20-27-7-52l-23-22-33-6-33-7-9 14c-5 8-9 24-9 36v22l22 15 22 16h55l15-16zM506 760c2 0 13 5 23 12l18 11 17-6 17-7-3-17-3-18-23-10-22-10V609l-17 3-18 3v56l-1 56-17 17c-9 10-17 21-17 25 0 17 13 19 27 6 8-8 16-15 19-15zm701-11c7-13 13-38 13-55v-30l-12-12c-18-18-27-15-48 21l-20 32v-64l-11-6-10-7-6 21-5 20-27-20-28-20-26 6c-30 8-49 27-46 47 1 7-1 21-6 31l-8 19 15 15 15 15 39 4 39 5 15-10 14-10-7-7c-4-4-24-10-44-14l-38-8 32-1 32-1 15-22 16-22v22c0 13 5 33 11 44l12 22 28-35 29-34-4 15c-2 8-7 28-11 43l-6 29 13-4c7-3 19-15 25-29zm-247-50v-59h-30v58c0 59 6 76 21 66l9-5v-60zm377 54 4-12-33-10-33-9 23-1 22-1v-10c0-5-15-14-32-19l-33-9 33-1 32-1v-28l-30-12-30-12-15 6-15 5v67l12 12 13 13-15 9-15 10 15 10 15 10 39-2 39-3 4-12zm53 2c0-4-7-20-16-38l-16-32 29 34 29 33 19-3 20-4 3-33 3-33-13-16c-7-9-27-22-44-29l-32-13-12-51-12-51-12 4-11 4 1 39c1 21 4 63 7 92l6 54 16 24c14 22 35 33 35 19zM444 548l10-17-7-7-7-7-18 17-19 16-17-6-16-6-7-26-6-25 10-16c6-9 18-18 28-20l18-3 9 16c5 9 13 16 18 16 15 0 12-27-6-44l-15-16h-48l-20 26-21 27v53l16 22 16 23 35-3 36-3 11-17zm116-37c5-11 10-28 10-39v-19l-20-18-19-17-26 6-26 7-11 24-11 24 17 26 16 25h59l11-19zm175-35v-49l-12-4-13-5v40c0 21-3 42-7 45l-6 7-14-11-13-11v-70l-12 4-13 5-3 42-3 42-12-4-12-4-5-37-5-37-10-2-10-2-3 51-3 52 78-2 78-1v-49zm117 28 12-26-15-26-15-27-27 2-27 2v-39h-30v63c0 35 3 67 7 70 3 4 24 7 45 7h38l12-26zm97 12 12-15-3-37-3-36-37-4-36-3-11 13-11 13 6 17 6 16 24 6c13 3 24 10 24 15v9l-25-6-25-6v9c0 16 12 23 40 23h28l11-14zm116-38v-48h-10l-10-1-5 36c-3 20-8 36-12 35h-28v-82l-12 4-13 5-3 51-3 51 48-2 48-2v-47zm47 20 12-33 13 33 13 32h30l-21-51c-28-72-36-86-55-93-18-7-34 0-34 15v9h40v10c0 5-9 32-20 60l-20 50h31l11-32zm-257 552-6-10h42l-6 10c-3 6-10 10-15 10s-12-4-15-10zM168 787c-5-10-8-33-7-50v-32l10 25c5 13 9 36 7 50l-3 25-7-18zm462-67-15-10 25-20c34-27 40-25 40 10v30h-17c-10 0-25-5-33-10zm335 110c-10-11-15-20-11-20 14 0 46 21 46 30 0 16-16 11-35-10zm452-130c-20-28-13-41 9-18l16 16-4 13-4 13-17-24zM501 497l-11-14 6-17 7-17 16 3 16 3v48l-11 4c-6 2-16-3-23-10zm291 4-14-8 4-19 3-19 18-3 17-3 6 16 7 17-14 13-14 14-13-8zm103-41-6-10h41v10c0 6-6 10-14 10s-18-4-21-10z"/></g><g fill="#3d5188" transform="matrix(.1 0 0 -.1 0 150)"><path d="M0 750V0h1500v1500H0V750zm740 350v-20h62l5-20 6-21 14 21 14 20h58l11-20c11-21 10-57-3-77l-8-13h-58l-15 22-16 22v-44h-30v81l-17-3-18-3-3-38-3-37h-29v127l-25-5-25-4V970h-30v120h-50v30h160v-20zM274 900l25-31 12-41 11-41-7-36-6-36 26 43 27 43 14-12c8-6 14-19 14-29 0-9 3-20 7-23l7-7 12 30 13 30h24l-7-50-7-50 23 3 23 2 6 15 6 15-18 13-19 13v20c0 22 10 25 28 7l11-11 26 11 25 11 15-5 15-6v-49l-17-6c-27-10-33-23-33-75v-48h-10c-6 0-18 13-28 29l-18 29-18-10-19-11-19 12-18 11v-30h-11c-6 0-13 9-16 20l-5 20h-27l-6-21-7-20-16 3-17 4 2 26 2 26-34-36-33-36h-71l-19 17c-10 9-21 14-25 11-3-4-18-3-32 0l-26 7-15 35-15 36 16 54 16 54 30 35c17 19 37 35 45 35 19 0 18-2-16-57l-30-48-6-47-7-48 13-15c7-8 16-15 20-15h7l-5 50-4 49 30 31c35 34 44 36 66 14l16-15v-67l-26-32-26-31 6-6 6-7 28 10 27 9 18 35 18 35-4 58-3 57-22 30c-26 34-27 40-8 40 8 0 26-14 40-30zm504-24 53-27 38-38 39-39 7-31 6-30-13-28-13-27-35-20-34-20H720v-8c0-4-6-8-14-8h-15l-6 18c-3 9-23 29-45 44l-40 28v48l39 15 39 16 7 31 7 31 11-4 12-4 3-25 3-26 40-5 41-5 18-17 19-18-10-18-10-19h-41l5 14 6 14-22 6c-12 3-27 6-32 6h-11l4-35 4-35h94l22 16 22 15v57l-24 29c-13 16-46 41-73 55l-48 27-70 12-69 12-4-12-4-11h-38v15c0 7 8 19 18 25l17 11 75-4 75-4 53-27zm231-5 23-18-6-21c-9-27-45-49-86-54l-33-3-8 29-8 29 29 28 28 29h19c10 0 29-9 42-19zm196-111c8-16 15-39 15-52v-23l13 25 13 25-10 7-11 7 10 10c6 6 27 11 47 13l38 2 11-11 11-11-6-11c-4-6-19-12-34-12l-27-2 23-4 22-4v-29l-27-1-28-2 28-4 27-4v-14c0-17-31-35-59-35h-20l-11 18-11 17-5-12c-9-21-31-15-53 15l-20 27-1-27v-27l-11-7-11-7-8 13-7 12-21-11c-11-6-32-11-46-11h-26l-19 19-19 19-5-19-5-19h-30l-5 26c-2 14-2 45 1 70l5 44h9c5 0 13-10 18-22 5-13 9-18 9-12 2 27 99 45 131 24l15-10-15-10c-8-5-26-10-40-11l-25-2 25-4c14-3 30-9 36-14l11-9 6 30 7 30h12c8 0 21-12 31-27l17-28-6 43-7 42h11c7 0 18-13 27-30zm185-8c0-10-6-24-12-32-7-7 2-2 20 13l33 26 13-5c8-3 17-16 20-30l6-24-15-29-15-30-34-12-34-12-9-46-8-46-19-3-18-4 5 59c3 32 8 76 10 98l3 40 18 28c21 31 36 35 36 9zM447 552c18-24 16-32-7-32h-20v20h-40l-11-24-11-23 11-22 12-21h30l6 16 6 16 18-5 17-5 6 24 7 25 24 11 24 11 26-17 25-16v-59l-16-15-15-16h-46l-18 20-18 20-14-20-14-20h-68l-15 22-16 22v75l27 21 27 21 25-6c14-4 31-14 38-23zm281-25 12-8v-99h-30v80h-30v-80h-40v80h-30v-80h-30v53c0 30 2 56 4 58 8 7 131 4 144-4zm115-5 17-15v-38l10 6 11 7-6 18-6 19 22 11 22 12 23-11 24-11v-97l-45-1-46-1-6 15-6 16-9-16-9-16h-47l-5-21-6-21-13 4-13 5-3 63c-2 34-1 68 2 75l4 12h67l18-15zm213 7 6-10 14 12 14 12 8-7c4-4 12-22 18-39l11-32 7 32 7 31 14 6 14 5 6-9 6-9-26-62c-26-65-38-79-67-79h-18v28l20 5 20 5-18 47-17 48-3-47-3-46h-29v80h-30l-1-12c-1-7-2-24-3-38l-1-25-17-3-18-3v54c0 29 2 56 5 58 2 3 20 5 40 6l35 1 6-9zm-198 514c7-3 16-2 19 1 4 3-2 6-13 5l-19-1 13-5zm0-40c6-2 18-2 25 0l12 5h-50l13-5zM167 787c-4-10-7-31-6-45v-27l10 25c5 13 8 33 7 45l-3 20-8-18zm481-64c-36-6-35-14 2-36l30-18v30c0 17-1 30-2 30-2-1-15-4-30-6zm321 108-24-20 23 6c23 5 38 20 29 29-2 2-15-4-28-15zm-2-132 7-23 4 13c2 7-1 18-6 23l-11 11 6-24zm445-9-12-20h10c5 0 14 9 20 20l11 20h-8c-5 0-14-9-21-20zM500 475v-26l18 3 17 3v40l-17 3-18 3v-26zm400 25-15-10h12c6 0 15 5 18 10 8 12 4 12-15 0zm-110-25v-25h30v50h-30v-25zm105-15-6-10h15c8 0 18 5 21 10l6 10h-15c-8 0-18-4-21-10z"/></g></g></svg>